<svg width="474" height="135" viewBox="0 0 474 135" fill="none" xmlns="http://www.w3.org/2000/svg">
<path d="M0.171875 3H12.6875L25.9062 35.25H26.4688L39.6875 3H52.2031V51H42.3594V19.7578H41.9609L29.5391 50.7656H22.8359L10.4141 19.6406H10.0156V51H0.171875V3ZM70.7926 51.6797C68.4957 51.6797 66.4488 51.2813 64.652 50.4844C62.8551 49.6719 61.4332 48.4766 60.3863 46.8984C59.3551 45.3047 58.8395 43.3203 58.8395 40.9453C58.8395 38.9453 59.2066 37.2656 59.941 35.9062C60.6754 34.5469 61.6754 33.4531 62.941 32.625C64.2066 31.7969 65.6441 31.1719 67.2535 30.75C68.8785 30.3281 70.5816 30.0312 72.3629 29.8594C74.4566 29.6406 76.1441 29.4375 77.4254 29.25C78.7066 29.0469 79.6363 28.75 80.2145 28.3594C80.7926 27.9687 81.0816 27.3906 81.0816 26.625V26.4844C81.0816 25 80.6129 23.8516 79.6754 23.0391C78.7535 22.2266 77.441 21.8203 75.7379 21.8203C73.941 21.8203 72.5113 22.2187 71.4488 23.0156C70.3863 23.7969 69.6832 24.7812 69.3395 25.9687L60.1051 25.2188C60.5738 23.0312 61.4957 21.1406 62.8707 19.5469C64.2457 17.9375 66.0191 16.7031 68.191 15.8437C70.3785 14.9687 72.9098 14.5313 75.7848 14.5313C77.7848 14.5313 79.6988 14.7656 81.527 15.2344C83.3707 15.7031 85.0035 16.4297 86.4254 17.4141C87.8629 18.3984 88.9957 19.6641 89.8238 21.2109C90.652 22.7422 91.066 24.5781 91.066 26.7187V51H81.5973V46.0078H81.316C80.7379 47.1328 79.9645 48.125 78.9957 48.9844C78.027 49.8281 76.8629 50.4922 75.5035 50.9766C74.1441 51.4453 72.5738 51.6797 70.7926 51.6797ZM73.652 44.7891C75.1207 44.7891 76.4176 44.5 77.5426 43.9219C78.6676 43.3281 79.5504 42.5312 80.191 41.5313C80.8316 40.5312 81.152 39.3984 81.152 38.1328V34.3125C80.8395 34.5156 80.4098 34.7031 79.8629 34.875C79.3316 35.0312 78.7301 35.1797 78.0582 35.3203C77.3863 35.4453 76.7145 35.5625 76.0426 35.6719C75.3707 35.7656 74.7613 35.8516 74.2145 35.9297C73.0426 36.1016 72.0191 36.375 71.1441 36.75C70.2691 37.125 69.5895 37.6328 69.1051 38.2734C68.6207 38.8984 68.3785 39.6797 68.3785 40.6172C68.3785 41.9766 68.8707 43.0156 69.8551 43.7344C70.8551 44.4375 72.1207 44.7891 73.652 44.7891ZM108.946 30.1875V51H98.9621V15H108.478V21.3516H108.9C109.696 19.2578 111.032 17.6016 112.907 16.3828C114.782 15.1484 117.056 14.5313 119.728 14.5313C122.228 14.5313 124.407 15.0781 126.267 16.1719C128.126 17.2656 129.571 18.8281 130.603 20.8594C131.634 22.875 132.15 25.2812 132.15 28.0781V51H122.165V29.8594C122.181 27.6562 121.618 25.9375 120.478 24.7031C119.337 23.4531 117.767 22.8281 115.767 22.8281C114.423 22.8281 113.236 23.1172 112.204 23.6953C111.189 24.2734 110.392 25.1172 109.814 26.2266C109.251 27.3203 108.962 28.6406 108.946 30.1875ZM153.434 51.5859C150.7 51.5859 148.223 50.8828 146.005 49.4766C143.802 48.0547 142.052 45.9687 140.755 43.2187C139.473 40.4531 138.833 37.0625 138.833 33.0469C138.833 28.9219 139.497 25.4922 140.825 22.7578C142.153 20.0078 143.919 17.9531 146.122 16.5938C148.341 15.2188 150.77 14.5313 153.411 14.5313C155.427 14.5313 157.106 14.875 158.45 15.5625C159.809 16.2344 160.903 17.0781 161.731 18.0937C162.575 19.0937 163.216 20.0781 163.653 21.0469H163.958V3H173.919V51H164.075V45.2344H163.653C163.184 46.2344 162.52 47.2266 161.661 48.2109C160.817 49.1797 159.716 49.9844 158.356 50.625C157.012 51.2656 155.372 51.5859 153.434 51.5859ZM156.598 43.6406C158.208 43.6406 159.567 43.2031 160.677 42.3281C161.802 41.4375 162.661 40.1953 163.255 38.6016C163.864 37.0078 164.169 35.1406 164.169 33C164.169 30.8594 163.872 29 163.278 27.4219C162.684 25.8437 161.825 24.625 160.7 23.7656C159.575 22.9062 158.208 22.4766 156.598 22.4766C154.958 22.4766 153.575 22.9219 152.45 23.8125C151.325 24.7031 150.473 25.9375 149.895 27.5156C149.317 29.0937 149.028 30.9219 149.028 33C149.028 35.0937 149.317 36.9453 149.895 38.5547C150.489 40.1484 151.341 41.3984 152.45 42.3047C153.575 43.1953 154.958 43.6406 156.598 43.6406ZM192.543 51.6797C190.246 51.6797 188.2 51.2813 186.403 50.4844C184.606 49.6719 183.184 48.4766 182.137 46.8984C181.106 45.3047 180.59 43.3203 180.59 40.9453C180.59 38.9453 180.957 37.2656 181.692 35.9062C182.426 34.5469 183.426 33.4531 184.692 32.625C185.957 31.7969 187.395 31.1719 189.004 30.75C190.629 30.3281 192.332 30.0312 194.114 29.8594C196.207 29.6406 197.895 29.4375 199.176 29.25C200.457 29.0469 201.387 28.75 201.965 28.3594C202.543 27.9687 202.832 27.3906 202.832 26.625V26.4844C202.832 25 202.364 23.8516 201.426 23.0391C200.504 22.2266 199.192 21.8203 197.489 21.8203C195.692 21.8203 194.262 22.2187 193.2 23.0156C192.137 23.7969 191.434 24.7812 191.09 25.9687L181.856 25.2188C182.325 23.0312 183.246 21.1406 184.621 19.5469C185.996 17.9375 187.77 16.7031 189.942 15.8437C192.129 14.9687 194.661 14.5313 197.536 14.5313C199.536 14.5313 201.45 14.7656 203.278 15.2344C205.121 15.7031 206.754 16.4297 208.176 17.4141C209.614 18.3984 210.746 19.6641 211.575 21.2109C212.403 22.7422 212.817 24.5781 212.817 26.7187V51H203.348V46.0078H203.067C202.489 47.1328 201.715 48.125 200.746 48.9844C199.778 49.8281 198.614 50.4922 197.254 50.9766C195.895 51.4453 194.325 51.6797 192.543 51.6797ZM195.403 44.7891C196.871 44.7891 198.168 44.5 199.293 43.9219C200.418 43.3281 201.301 42.5312 201.942 41.5313C202.582 40.5312 202.903 39.3984 202.903 38.1328V34.3125C202.59 34.5156 202.161 34.7031 201.614 34.875C201.082 35.0312 200.481 35.1797 199.809 35.3203C199.137 35.4453 198.465 35.5625 197.793 35.6719C197.121 35.7656 196.512 35.8516 195.965 35.9297C194.793 36.1016 193.77 36.375 192.895 36.75C192.02 37.125 191.34 37.6328 190.856 38.2734C190.371 38.8984 190.129 39.6797 190.129 40.6172C190.129 41.9766 190.621 43.0156 191.606 43.7344C192.606 44.4375 193.871 44.7891 195.403 44.7891ZM230.697 3V51H220.713V3H230.697ZM249.111 51.6797C246.814 51.6797 244.767 51.2813 242.97 50.4844C241.173 49.6719 239.752 48.4766 238.705 46.8984C237.673 45.3047 237.158 43.3203 237.158 40.9453C237.158 38.9453 237.525 37.2656 238.259 35.9062C238.994 34.5469 239.994 33.4531 241.259 32.625C242.525 31.7969 243.962 31.1719 245.572 30.75C247.197 30.3281 248.9 30.0312 250.681 29.8594C252.775 29.6406 254.462 29.4375 255.744 29.25C257.025 29.0469 257.955 28.75 258.533 28.3594C259.111 27.9687 259.4 27.3906 259.4 26.625V26.4844C259.4 25 258.931 23.8516 257.994 23.0391C257.072 22.2266 255.759 21.8203 254.056 21.8203C252.259 21.8203 250.83 22.2187 249.767 23.0156C248.705 23.7969 248.002 24.7812 247.658 25.9687L238.423 25.2188C238.892 23.0312 239.814 21.1406 241.189 19.5469C242.564 17.9375 244.337 16.7031 246.509 15.8437C248.697 14.9687 251.228 14.5313 254.103 14.5313C256.103 14.5313 258.017 14.7656 259.845 15.2344C261.689 15.7031 263.322 16.4297 264.744 17.4141C266.181 18.3984 267.314 19.6641 268.142 21.2109C268.97 22.7422 269.384 24.5781 269.384 26.7187V51H259.916V46.0078H259.634C259.056 47.1328 258.283 48.125 257.314 48.9844C256.345 49.8281 255.181 50.4922 253.822 50.9766C252.462 51.4453 250.892 51.6797 249.111 51.6797ZM251.97 44.7891C253.439 44.7891 254.736 44.5 255.861 43.9219C256.986 43.3281 257.869 42.5312 258.509 41.5313C259.15 40.5312 259.47 39.3984 259.47 38.1328V34.3125C259.158 34.5156 258.728 34.7031 258.181 34.875C257.65 35.0312 257.048 35.1797 256.377 35.3203C255.705 35.4453 255.033 35.5625 254.361 35.6719C253.689 35.7656 253.08 35.8516 252.533 35.9297C251.361 36.1016 250.337 36.375 249.462 36.75C248.587 37.125 247.908 37.6328 247.423 38.2734C246.939 38.8984 246.697 39.6797 246.697 40.6172C246.697 41.9766 247.189 43.0156 248.173 43.7344C249.173 44.4375 250.439 44.7891 251.97 44.7891ZM335.245 19.8047H324.979C324.792 18.4766 324.409 17.2969 323.831 16.2656C323.253 15.2187 322.511 14.3281 321.604 13.5937C320.698 12.8594 319.651 12.2969 318.464 11.9062C317.292 11.5156 316.018 11.3203 314.643 11.3203C312.159 11.3203 309.995 11.9375 308.151 13.1719C306.307 14.3906 304.878 16.1719 303.862 18.5156C302.846 20.8437 302.339 23.6719 302.339 27C302.339 30.4219 302.846 33.2969 303.862 35.625C304.893 37.9531 306.331 39.7109 308.175 40.8984C310.018 42.0859 312.151 42.6797 314.573 42.6797C315.932 42.6797 317.19 42.5 318.346 42.1406C319.518 41.7812 320.557 41.2578 321.464 40.5703C322.37 39.8672 323.12 39.0156 323.714 38.0156C324.323 37.0156 324.745 35.875 324.979 34.5937L335.245 34.6406C334.979 36.8437 334.315 38.9688 333.253 41.0156C332.206 43.0469 330.792 44.8672 329.011 46.4766C327.245 48.0703 325.136 49.3359 322.682 50.2734C320.245 51.1953 317.487 51.6562 314.409 51.6562C310.128 51.6562 306.3 50.6875 302.925 48.75C299.565 46.8125 296.909 44.0078 294.956 40.3359C293.018 36.6641 292.05 32.2187 292.05 27C292.05 21.7656 293.034 17.3125 295.003 13.6406C296.971 9.96875 299.643 7.17187 303.018 5.25C306.393 3.3125 310.19 2.34375 314.409 2.34375C317.19 2.34375 319.768 2.73437 322.143 3.51562C324.534 4.29687 326.651 5.4375 328.495 6.9375C330.339 8.42187 331.839 10.2422 332.995 12.3984C334.167 14.5547 334.917 17.0234 335.245 19.8047ZM352.469 30.1875V51H342.485V3H352.188V21.3516H352.61C353.422 19.2266 354.735 17.5625 356.547 16.3594C358.36 15.1406 360.633 14.5313 363.368 14.5313C365.868 14.5313 368.047 15.0781 369.907 16.1719C371.782 17.25 373.235 18.8047 374.266 20.8359C375.313 22.8516 375.829 25.2656 375.813 28.0781V51H365.829V29.8594C365.844 27.6406 365.282 25.9141 364.141 24.6797C363.016 23.4453 361.438 22.8281 359.407 22.8281C358.047 22.8281 356.844 23.1172 355.797 23.6953C354.766 24.2734 353.954 25.1172 353.36 26.2266C352.782 27.3203 352.485 28.6406 352.469 30.1875ZM394.086 51.6797C391.789 51.6797 389.742 51.2813 387.945 50.4844C386.148 49.6719 384.727 48.4766 383.68 46.8984C382.648 45.3047 382.133 43.3203 382.133 40.9453C382.133 38.9453 382.5 37.2656 383.234 35.9062C383.969 34.5469 384.969 33.4531 386.234 32.625C387.5 31.7969 388.938 31.1719 390.547 30.75C392.172 30.3281 393.875 30.0312 395.656 29.8594C397.75 29.6406 399.438 29.4375 400.719 29.25C402 29.0469 402.93 28.75 403.508 28.3594C404.086 27.9687 404.375 27.3906 404.375 26.625V26.4844C404.375 25 403.906 23.8516 402.969 23.0391C402.047 22.2266 400.734 21.8203 399.031 21.8203C397.234 21.8203 395.805 22.2187 394.742 23.0156C393.68 23.7969 392.977 24.7812 392.633 25.9687L383.398 25.2188C383.867 23.0312 384.789 21.1406 386.164 19.5469C387.539 17.9375 389.313 16.7031 391.484 15.8437C393.672 14.9687 396.203 14.5313 399.078 14.5313C401.078 14.5313 402.992 14.7656 404.82 15.2344C406.664 15.7031 408.297 16.4297 409.719 17.4141C411.156 18.3984 412.289 19.6641 413.117 21.2109C413.945 22.7422 414.359 24.5781 414.359 26.7187V51H404.891V46.0078H404.609C404.031 47.1328 403.258 48.125 402.289 48.9844C401.32 49.8281 400.156 50.4922 398.797 50.9766C397.438 51.4453 395.867 51.6797 394.086 51.6797ZM396.945 44.7891C398.414 44.7891 399.711 44.5 400.836 43.9219C401.961 43.3281 402.844 42.5312 403.484 41.5313C404.125 40.5312 404.445 39.3984 404.445 38.1328V34.3125C404.133 34.5156 403.703 34.7031 403.156 34.875C402.625 35.0312 402.023 35.1797 401.352 35.3203C400.68 35.4453 400.008 35.5625 399.336 35.6719C398.664 35.7656 398.055 35.8516 397.508 35.9297C396.336 36.1016 395.313 36.375 394.438 36.75C393.563 37.125 392.883 37.6328 392.398 38.2734C391.914 38.8984 391.672 39.6797 391.672 40.6172C391.672 41.9766 392.164 43.0156 393.148 43.7344C394.148 44.4375 395.414 44.7891 396.945 44.7891ZM422.255 51V15H432.24V51H422.255ZM427.271 10.3594C425.787 10.3594 424.513 9.86719 423.451 8.88281C422.404 7.88281 421.88 6.6875 421.88 5.29687C421.88 3.92187 422.404 2.74219 423.451 1.75781C424.513 0.757811 425.787 0.25781 427.271 0.25781C428.755 0.25781 430.021 0.757811 431.068 1.75781C432.13 2.74219 432.662 3.92187 432.662 5.29687C432.662 6.6875 432.13 7.88281 431.068 8.88281C430.021 9.86719 428.755 10.3594 427.271 10.3594ZM450.372 30.1875V51H440.388V15H449.904V21.3516H450.325C451.122 19.2578 452.458 17.6016 454.333 16.3828C456.208 15.1484 458.482 14.5313 461.154 14.5313C463.654 14.5313 465.833 15.0781 467.693 16.1719C469.552 17.2656 470.997 18.8281 472.029 20.8594C473.06 22.875 473.575 25.2812 473.575 28.0781V51H463.591V29.8594C463.607 27.6562 463.044 25.9375 461.904 24.7031C460.763 23.4531 459.193 22.8281 457.193 22.8281C455.849 22.8281 454.661 23.1172 453.63 23.6953C452.614 24.2734 451.818 25.1172 451.239 26.2266C450.677 27.3203 450.388 28.6406 450.372 30.1875ZM0.171875 134V86H10.3203V105.805H30.9219V86H41.0469V134H30.9219V114.172H10.3203V134H0.171875ZM72.4625 118.672V98H82.4469V134H72.8609V127.461H72.4859C71.6734 129.57 70.3219 131.266 68.4313 132.547C66.5563 133.828 64.2672 134.469 61.5641 134.469C59.1578 134.469 57.0406 133.922 55.2125 132.828C53.3844 131.734 51.9547 130.18 50.9234 128.164C49.9078 126.148 49.3922 123.734 49.3766 120.922V98H59.3609V119.141C59.3766 121.266 59.9469 122.945 61.0719 124.18C62.1969 125.414 63.7047 126.031 65.5953 126.031C66.7984 126.031 67.9234 125.758 68.9703 125.211C70.0172 124.648 70.8609 123.82 71.5016 122.727C72.1578 121.633 72.4781 120.281 72.4625 118.672ZM90.7707 134V86H100.755V104.047H101.06C101.497 103.078 102.13 102.094 102.958 101.094C103.802 100.078 104.896 99.2344 106.239 98.5625C107.599 97.875 109.286 97.5313 111.302 97.5313C113.927 97.5313 116.349 98.2188 118.568 99.5938C120.786 100.953 122.56 103.008 123.888 105.758C125.216 108.492 125.88 111.922 125.88 116.047C125.88 120.062 125.232 123.453 123.935 126.219C122.654 128.969 120.904 131.055 118.685 132.477C116.482 133.883 114.013 134.586 111.279 134.586C109.341 134.586 107.693 134.266 106.333 133.625C104.989 132.984 103.888 132.18 103.029 131.211C102.169 130.227 101.513 129.234 101.06 128.234H100.614V134H90.7707ZM100.544 116C100.544 118.141 100.841 120.008 101.435 121.602C102.029 123.195 102.888 124.437 104.013 125.328C105.138 126.203 106.505 126.641 108.114 126.641C109.739 126.641 111.114 126.195 112.239 125.305C113.364 124.398 114.216 123.148 114.794 121.555C115.388 119.945 115.685 118.094 115.685 116C115.685 113.922 115.396 112.094 114.818 110.516C114.239 108.937 113.388 107.703 112.263 106.812C111.138 105.922 109.755 105.477 108.114 105.477C106.489 105.477 105.114 105.906 103.989 106.766C102.88 107.625 102.029 108.844 101.435 110.422C100.841 112 100.544 113.859 100.544 116ZM190.657 102.805H180.391C180.204 101.477 179.821 100.297 179.243 99.2656C178.664 98.2187 177.922 97.3281 177.016 96.5937C176.11 95.8594 175.063 95.2969 173.875 94.9062C172.704 94.5156 171.43 94.3203 170.055 94.3203C167.571 94.3203 165.407 94.9375 163.563 96.1719C161.719 97.3906 160.289 99.1719 159.274 101.516C158.258 103.844 157.75 106.672 157.75 110C157.75 113.422 158.258 116.297 159.274 118.625C160.305 120.953 161.743 122.711 163.586 123.898C165.43 125.086 167.563 125.68 169.985 125.68C171.344 125.68 172.602 125.5 173.758 125.141C174.93 124.781 175.969 124.258 176.875 123.57C177.782 122.867 178.532 122.016 179.125 121.016C179.735 120.016 180.157 118.875 180.391 117.594L190.657 117.641C190.391 119.844 189.727 121.969 188.664 124.016C187.618 126.047 186.204 127.867 184.422 129.477C182.657 131.07 180.547 132.336 178.094 133.273C175.657 134.195 172.899 134.656 169.821 134.656C165.539 134.656 161.711 133.687 158.336 131.75C154.977 129.812 152.321 127.008 150.368 123.336C148.43 119.664 147.461 115.219 147.461 110C147.461 104.766 148.446 100.312 150.414 96.6406C152.383 92.9687 155.055 90.1719 158.43 88.25C161.805 86.3125 165.602 85.3437 169.821 85.3437C172.602 85.3437 175.18 85.7344 177.555 86.5156C179.946 87.2969 182.063 88.4375 183.907 89.9375C185.75 91.4219 187.25 93.2422 188.407 95.3984C189.579 97.5547 190.329 100.023 190.657 102.805ZM198.084 86H210.6L223.818 118.25H224.381L237.6 86H250.115V134H240.271V102.758H239.873L227.451 133.766H220.748L208.326 102.641H207.928V134H198.084V86ZM284.666 99.8047C284.478 97.9141 283.673 96.4453 282.252 95.3984C280.83 94.3516 278.9 93.8281 276.462 93.8281C274.806 93.8281 273.408 94.0625 272.267 94.5312C271.127 94.9844 270.252 95.6172 269.642 96.4297C269.048 97.2422 268.752 98.1641 268.752 99.1953C268.72 100.055 268.9 100.805 269.291 101.445C269.697 102.086 270.252 102.641 270.955 103.109C271.658 103.562 272.47 103.961 273.392 104.305C274.314 104.633 275.298 104.914 276.345 105.148L280.658 106.18C282.752 106.648 284.673 107.273 286.423 108.055C288.173 108.836 289.689 109.797 290.97 110.937C292.252 112.078 293.244 113.422 293.947 114.969C294.666 116.516 295.033 118.289 295.048 120.289C295.033 123.227 294.283 125.773 292.798 127.93C291.33 130.07 289.205 131.734 286.423 132.922C283.658 134.094 280.322 134.68 276.416 134.68C272.541 134.68 269.166 134.086 266.291 132.898C263.431 131.711 261.197 129.953 259.587 127.625C257.994 125.281 257.158 122.383 257.08 118.93H266.9C267.009 120.539 267.47 121.883 268.283 122.961C269.111 124.023 270.212 124.828 271.587 125.375C272.978 125.906 274.548 126.172 276.298 126.172C278.017 126.172 279.509 125.922 280.775 125.422C282.056 124.922 283.048 124.227 283.752 123.336C284.455 122.445 284.806 121.422 284.806 120.266C284.806 119.187 284.486 118.281 283.845 117.547C283.22 116.812 282.298 116.187 281.08 115.672C279.877 115.156 278.4 114.687 276.65 114.266L271.423 112.953C267.377 111.969 264.181 110.43 261.837 108.336C259.494 106.242 258.33 103.422 258.345 99.875C258.33 96.9687 259.103 94.4297 260.666 92.2578C262.244 90.0859 264.408 88.3906 267.158 87.1719C269.908 85.9531 273.033 85.3437 276.533 85.3437C280.095 85.3437 283.205 85.9531 285.861 87.1719C288.533 88.3906 290.611 90.0859 292.095 92.2578C293.58 94.4297 294.345 96.9453 294.392 99.8047H284.666Z" fill="url(#paint0_linear_748_4532)"/>
<defs>
<linearGradient id="paint0_linear_748_4532" x1="418.388" y1="-28.9355" x2="133.525" y2="235.727" gradientUnits="userSpaceOnUse">
<stop stop-color="#A0C2FD"/>
<stop offset="0.510017" stop-color="#8369C4"/>
<stop offset="1" stop-color="#2228E0"/>
</linearGradient>
</defs>
</svg>
